<svg version="1.1" id="Layer_1" xmlns="http://www.w3.org/2000/svg" xmlns:xlink="http://www.w3.org/1999/xlink" x="0px" y="0px"
	 width="100%" viewBox="0 0 3085 2478" enable-background="new 0 0 3085 2478" xml:space="preserve">
<path fill="#FFFFFF" opacity="1.000000" stroke="none" 
	d="
M2.000000,986.000000 
	C2.000000,658.050720 2.000000,330.101471 2.000000,2.076100 
	C1030.456787,2.076100 2058.913574,2.076100 3088.000000,2.076100 
	C3088.000000,438.055878 3088.000000,874.112061 3087.258301,1310.699951 
	C3085.664307,1291.428955 3080.589111,1272.539185 3073.608154,1254.162476 
	C3062.058594,1223.760254 3044.341553,1197.588135 3019.177979,1176.693726 
	C3002.067139,1162.486206 2981.909668,1153.587769 2961.954590,1144.537109 
	C2951.757080,1139.911987 2940.931641,1135.971313 2929.977783,1133.842285 
	C2894.342041,1126.916504 2858.362549,1123.814331 2822.094238,1128.325073 
	C2800.846924,1130.967651 2780.608887,1136.868286 2761.522949,1146.866821 
	C2737.159912,1159.629883 2717.619141,1177.807739 2701.136475,1199.459961 
	C2683.936768,1222.054077 2668.062744,1245.560303 2661.898682,1273.849487 
	C2658.804443,1288.049561 2657.349609,1302.631348 2655.598145,1317.094360 
	C2651.609375,1350.034424 2652.855713,1382.672852 2661.417236,1414.927124 
	C2677.812256,1476.692017 2715.566895,1519.959839 2774.425293,1544.275879 
	C2821.263428,1563.626099 2870.083252,1568.684326 2919.991943,1559.837036 
	C2960.395752,1552.674805 2995.463379,1534.372925 3024.271240,1505.117188 
	C3056.726807,1472.157471 3075.572998,1431.989868 3084.294189,1386.831543 
	C3085.507080,1380.550049 3086.763428,1374.276978 3088.000000,1368.000000 
	C3088.000000,1738.556641 3088.000000,2109.113281 3088.000000,2480.000000 
	C2524.610596,2480.000000 1961.221191,2480.000000 1397.354980,2479.323242 
	C1402.780640,2477.756104 1408.734985,2477.121582 1414.577026,2475.933838 
	C1461.327393,2466.432373 1499.935181,2443.211670 1529.818848,2406.080078 
	C1559.674683,2368.982910 1575.056274,2325.855957 1579.504761,2278.875000 
	C1582.535889,2246.860596 1579.751587,2215.100098 1569.927124,2184.290283 
	C1557.494507,2145.301514 1536.774292,2111.939209 1503.066895,2087.563721 
	C1486.481323,2075.569824 1467.586914,2068.066895 1449.335327,2059.269775 
	C1436.590942,2053.126953 1423.054810,2050.075439 1409.252075,2047.916992 
	C1383.223022,2043.846558 1356.995605,2042.984619 1330.710571,2043.687744 
	C1310.651245,2044.224243 1291.192261,2048.024658 1272.318604,2054.949219 
	C1243.096436,2065.670654 1219.399292,2084.003906 1199.754883,2107.750000 
	C1181.012817,2130.405518 1164.384766,2154.391602 1155.592041,2182.937012 
	C1150.874390,2198.251953 1149.034790,2214.018555 1147.488770,2229.913330 
	C1144.252197,2263.190918 1144.041138,2296.239502 1152.262695,2328.936279 
	C1163.631470,2374.148438 1187.345459,2411.151855 1225.275879,2438.647949 
	C1253.014404,2458.755615 1284.430054,2469.888672 1317.825562,2476.052979 
	C1325.208374,2477.415527 1332.608154,2478.686523 1340.000000,2480.000000 
	C894.133972,2480.000000 448.267975,2480.000000 2.000000,2480.000000 
	C2.000000,2003.277344 2.000000,1526.554565 2.532818,1048.944092 
	C3.766115,1048.146729 4.466593,1048.237061 5.375976,1049.161621 
	C7.879778,1073.699463 14.350383,1096.174194 24.486286,1117.754028 
	C43.047184,1157.271118 72.361763,1186.415527 111.225998,1205.197632 
	C157.503418,1227.562134 206.720642,1234.630005 257.788208,1228.346558 
	C308.185730,1222.145386 350.294189,1199.798096 383.476501,1161.672729 
	C416.402557,1123.841797 433.113647,1078.793701 437.577698,1029.207275 
	C440.308167,998.877197 438.339600,968.735352 429.751770,939.315125 
	C420.578217,907.888306 405.776276,879.714417 382.713837,855.958618 
	C365.418945,838.143616 344.549500,826.181763 322.370514,815.989136 
	C307.591431,809.197144 292.918030,802.452942 276.614136,799.472473 
	C246.339050,793.937927 215.831818,792.493652 185.272949,793.863892 
	C156.392548,795.158752 128.962128,802.670044 103.883614,817.760193 
	C78.574432,832.989136 59.109314,854.043274 42.340767,877.987000 
	C23.962666,904.229065 10.167900,932.200439 7.513607,964.763123 
	C6.929828,971.924927 5.305706,979.001831 3.623729,986.029175 
	C2.724531,985.960266 2.362265,985.980164 2.000000,986.000000 
M2259.699707,1685.072021 
	C2267.521240,1686.480225 2275.391602,1687.662354 2283.155518,1689.337158 
	C2312.031006,1695.566162 2338.245850,1708.678345 2364.708008,1721.135742 
	C2382.765381,1729.636475 2400.919922,1738.011475 2420.943604,1740.688721 
	C2429.031494,1741.770020 2436.154053,1744.537720 2443.098389,1748.667358 
	C2456.371094,1756.560425 2471.013672,1759.241089 2486.258301,1757.976074 
	C2519.378174,1755.227783 2546.614990,1740.593262 2567.934814,1715.428711 
	C2602.258301,1674.916016 2606.729980,1629.372314 2588.450684,1580.866455 
	C2580.394775,1559.489868 2565.798828,1541.921265 2552.405518,1523.689941 
	C2536.074951,1501.461060 2518.900879,1479.666748 2504.641113,1456.139282 
	C2471.162842,1400.902832 2465.430420,1340.793579 2477.053223,1278.172974 
	C2486.837891,1225.455688 2507.813477,1177.340576 2535.909912,1132.049927 
	C2548.402832,1111.911987 2562.232178,1092.571167 2579.475586,1076.410278 
	C2610.279541,1047.540283 2646.332520,1027.341309 2687.412842,1016.714844 
	C2711.914795,1010.376709 2737.089111,1008.397461 2762.145996,1005.699219 
	C2778.994385,1003.884827 2795.570312,1000.923950 2811.816162,995.781982 
	C2831.391846,989.585999 2845.084961,977.316528 2854.301758,959.147217 
	C2859.050537,949.786072 2862.386719,940.048584 2863.357422,929.820007 
	C2865.817871,903.899414 2851.819336,879.908875 2821.835938,876.059387 
	C2795.883545,872.727356 2769.743896,870.849243 2743.685791,868.342468 
	C2715.969238,865.676270 2688.253418,863.004272 2660.533203,860.374695 
	C2615.978760,856.147949 2571.419434,851.971008 2526.865479,847.740051 
	C2499.478027,845.139343 2472.100098,842.434875 2444.710449,839.858337 
	C2428.201660,838.305298 2411.666260,837.027466 2395.163818,835.414673 
	C2366.227051,832.586792 2337.306152,829.596558 2307.415283,826.576965 
	C2307.061279,830.952576 2306.644043,834.493408 2306.510986,838.044922 
	C2306.061523,850.034302 2306.048828,862.049500 2305.267822,874.015625 
	C2301.710449,928.538452 2298.071289,983.056702 2294.217041,1037.559326 
	C2291.514893,1075.775879 2288.329590,1113.958252 2285.518066,1152.167358 
	C2281.068115,1212.639038 2276.248779,1273.089844 2272.535400,1333.607666 
	C2269.556396,1382.160767 2267.989990,1430.800415 2265.776123,1479.400757 
	C2265.703613,1480.994141 2265.406738,1482.577148 2265.216309,1484.147095 
	C2262.473145,1485.581543 2260.161133,1486.864502 2257.787354,1488.020142 
	C2229.646973,1501.720825 2201.583984,1515.584717 2173.313721,1529.012207 
	C2159.239014,1535.697021 2143.281738,1535.230469 2128.566650,1539.656006 
	C2128.260986,1539.748047 2127.903076,1539.676514 2127.570068,1539.666382 
	C2115.885986,1539.309692 2104.633301,1541.746460 2093.389160,1544.598999 
	C2084.639404,1546.818726 2076.666016,1551.004272 2066.697754,1549.749634 
	C2047.890381,1547.382690 2028.834839,1546.976074 2009.880127,1545.794922 
	C1975.294678,1543.640137 1940.705444,1541.549805 1906.121704,1539.368530 
	C1857.571655,1536.306274 1809.028198,1533.135864 1760.476196,1530.105713 
	C1723.894409,1527.822632 1687.301270,1525.723022 1650.718506,1523.453247 
	C1643.846436,1523.026855 1637.000122,1522.183350 1629.403320,1521.462158 
	C1630.274414,1509.130371 1631.102539,1497.552368 1631.908325,1485.972778 
	C1634.128418,1454.064331 1636.265503,1422.150024 1638.570923,1390.247803 
	C1642.244751,1339.407471 1646.094482,1288.579712 1649.744507,1237.737671 
	C1652.750610,1195.865112 1655.483276,1153.973022 1658.501465,1112.101440 
	C1662.812866,1052.288696 1667.302246,992.488953 1671.663086,932.679810 
	C1674.982300,887.157288 1678.243896,841.630493 1681.474854,796.101562 
	C1682.153320,786.539307 1682.584717,776.959534 1683.174072,766.614563 
	C1574.656738,756.173218 1466.587036,745.774902 1357.183228,735.248169 
	C1353.332886,754.619812 1348.288574,772.706848 1346.347900,791.120972 
	C1340.378906,847.759216 1334.992188,904.475159 1330.531860,961.251404 
	C1326.409424,1013.726807 1323.346802,1066.296509 1320.585938,1118.865112 
	C1316.602417,1194.711792 1313.369385,1270.597534 1309.688354,1346.460449 
	C1308.769653,1365.397095 1307.361694,1384.310059 1306.218140,1402.599976 
	C1304.919189,1403.587280 1304.446533,1404.084106 1303.869141,1404.366089 
	C1256.596069,1427.442993 1209.346191,1450.567749 1161.968262,1473.427612 
	C1158.597778,1475.053711 1154.247437,1475.400635 1150.413940,1475.196167 
	C1119.471069,1473.545166 1088.543457,1471.609863 1057.610107,1469.780396 
	C1021.354187,1467.635986 985.096008,1465.530518 948.840942,1463.372314 
	C895.955750,1460.224365 843.074036,1457.019165 790.187927,1453.887085 
	C753.932312,1451.739746 717.670959,1449.690430 681.416321,1447.526367 
	C679.588135,1447.417114 677.800354,1446.632080 676.088928,1446.186646 
	C679.998291,1359.691284 683.930359,1273.843140 687.744202,1187.989624 
	C691.559753,1102.098877 694.644470,1016.170105 699.232910,930.321228 
	C702.041443,877.774292 710.445862,680.461670 708.546143,672.642334 
	C689.233154,670.973450 669.750854,669.486816 650.311340,667.567810 
	C613.708496,663.954529 577.137451,660.020020 540.539490,656.356323 
	C512.835999,653.583130 485.113190,651.001648 457.395355,648.373230 
	C413.170319,644.179382 368.947998,639.954895 324.712555,635.873535 
	C307.540802,634.289124 290.328094,633.152649 273.149719,631.634521 
	C260.918793,630.553772 249.102768,639.882568 248.263702,655.741028 
	C247.454849,671.028503 252.245575,684.536743 260.268250,697.142029 
	C277.963928,724.945374 303.655640,742.459351 333.882935,754.095825 
	C351.222107,760.770935 369.163330,766.234802 385.752014,774.432373 
	C418.944702,790.835022 446.977051,814.105957 470.011871,843.247375 
	C517.589233,903.437622 538.295227,973.072510 541.518555,1048.601440 
	C542.639038,1074.856445 539.497131,1100.893555 534.485596,1126.771851 
	C522.897888,1186.608887 493.651550,1236.039917 447.235748,1275.075195 
	C428.443634,1290.879272 408.264435,1305.065918 388.391937,1319.543091 
	C373.076050,1330.700806 356.868805,1340.684937 343.836578,1354.704956 
	C331.857605,1367.591919 326.589355,1382.087524 333.412872,1399.399536 
	C334.872864,1403.103516 336.012329,1406.938843 337.572388,1410.597534 
	C352.349243,1445.253418 371.366302,1477.647461 390.725769,1509.850098 
	C396.558685,1519.552612 402.756042,1528.934570 411.167908,1536.794312 
	C421.356415,1546.313721 433.955109,1550.087158 446.883087,1549.163208 
	C459.598206,1548.254517 472.179077,1544.242310 484.608307,1540.825928 
	C507.194397,1534.617310 528.027344,1523.577637 552.156677,1521.107666 
	C584.858215,1517.760132 617.316589,1512.836426 650.354980,1513.564819 
	C680.222168,1514.223633 709.030396,1519.723389 737.062073,1529.795654 
	C765.765320,1540.109375 792.245361,1554.703369 816.682434,1572.755615 
	C832.949402,1584.772339 850.023865,1596.228760 862.620911,1612.370728 
	C876.524231,1630.186646 890.059265,1648.363281 902.589844,1667.159424 
	C921.321106,1695.256714 935.864258,1725.387939 942.544861,1758.868408 
	C944.005737,1766.189819 943.420349,1774.243896 949.597656,1780.149902 
	C950.525879,1781.037720 950.288269,1783.327515 950.293335,1784.969604 
	C950.341125,1800.521606 950.581909,1816.078979 950.264771,1831.624634 
	C949.820984,1853.379639 944.855164,1874.347656 938.416931,1895.026367 
	C930.078308,1921.809082 917.324402,1946.663940 905.444275,1971.931641 
	C899.246216,1985.114136 893.492371,1998.650879 889.170593,2012.535767 
	C882.704651,2033.309937 886.603149,2052.412598 901.362122,2069.148926 
	C909.603699,2078.494873 919.039246,2086.280518 929.627869,2092.487305 
	C951.705139,2105.428223 974.177551,2117.693359 996.374146,2130.433594 
	C1007.952820,2137.079346 1020.173523,2142.031494 1032.604980,2146.873535 
	C1049.951416,2153.630371 1065.974243,2148.283447 1082.295044,2144.125244 
	C1084.968384,2143.444336 1087.610962,2141.172363 1089.452637,2138.958008 
	C1096.657837,2130.293945 1104.312744,2121.857422 1110.379761,2112.422852 
	C1124.407471,2090.609863 1137.154785,2067.971924 1151.235474,2046.195190 
	C1181.406494,1999.533691 1222.699463,1966.925781 1276.181885,1950.858887 
	C1316.927246,1938.618408 1358.640381,1935.081055 1401.167847,1937.391113 
	C1428.399414,1938.870361 1455.397705,1941.522705 1482.272949,1945.835571 
	C1530.311646,1953.544922 1572.091064,1973.963257 1606.704590,2008.280151 
	C1636.436646,2037.757568 1657.047852,2073.391846 1674.112671,2111.203369 
	C1685.728516,2136.941406 1696.661987,2162.986328 1708.172607,2188.772949 
	C1714.340942,2202.591309 1724.945801,2212.536377 1737.812866,2220.118164 
	C1755.768799,2230.698486 1775.280273,2234.472900 1796.036133,2234.460449 
	C1845.271729,2234.430908 1891.661621,2205.469727 1912.451416,2156.451660 
	C1924.726318,2127.510010 1923.946167,2097.577637 1921.198730,2067.452393 
	C1918.397705,2036.740356 1913.747314,2006.211548 1914.242920,1975.221680 
	C1914.623047,1951.455688 1917.973389,1928.269775 1925.332520,1905.693359 
	C1942.121094,1854.188965 1974.190918,1813.066650 2013.843628,1777.449463 
	C2048.517334,1746.304443 2087.917725,1722.295044 2130.558594,1703.602295 
	C2154.434082,1693.135986 2179.178955,1685.338379 2205.330078,1684.061646 
	C2222.823975,1683.207520 2240.413574,1684.308716 2259.699707,1685.072021 
M789.833679,440.727844 
	C777.400208,482.397797 770.214294,524.960938 767.706909,568.367920 
	C765.823853,600.966125 763.577332,633.543396 761.455078,666.127625 
	C758.250000,715.336487 754.995544,764.542114 751.794189,813.751221 
	C749.652832,846.668335 747.591919,879.590637 745.450989,912.507812 
	C742.250366,961.716919 738.997253,1010.922546 735.793213,1060.131470 
	C733.649780,1093.048584 731.573486,1125.969971 729.429810,1158.887085 
	C726.246704,1207.763428 723.048462,1256.638672 719.820923,1305.511963 
	C718.152283,1330.779175 716.365845,1356.038574 714.713013,1381.306763 
	C713.893066,1393.842285 713.254700,1406.389648 712.504517,1419.447388 
	C715.836365,1419.774536 718.410645,1420.099609 720.995178,1420.270264 
	C752.912476,1422.379639 784.832581,1424.446533 816.749329,1426.563599 
	C864.955811,1429.761108 913.161316,1432.974976 961.365234,1436.211548 
	C985.633484,1437.841064 1009.894775,1439.576538 1034.163940,1441.191040 
	C1068.740601,1443.491333 1103.318359,1445.780273 1137.906738,1447.892822 
	C1141.050903,1448.085083 1144.514648,1447.531250 1147.411255,1446.321533 
	C1152.850830,1444.049683 1158.059082,1441.180176 1163.232544,1438.322144 
	C1191.498535,1422.708252 1219.716431,1407.007568 1247.968506,1391.368652 
	C1259.019287,1385.251587 1270.115967,1379.217407 1281.160522,1373.162598 
	C1281.414429,1370.763916 1281.718140,1368.797485 1281.817749,1366.820679 
	C1283.748779,1328.547974 1285.758789,1290.278687 1287.545532,1251.999146 
	C1290.963867,1178.765869 1293.767578,1105.499878 1297.746216,1032.297607 
	C1301.000610,972.418640 1305.301147,912.591187 1309.668335,852.779663 
	C1314.520752,786.322327 1321.692993,720.098877 1332.042847,654.254395 
	C1338.505493,613.138916 1346.070068,572.266479 1359.618408,532.729187 
	C1364.906860,517.296326 1370.036987,501.863342 1379.167236,488.149078 
	C1381.172363,485.136932 1382.885254,482.176666 1387.203979,481.442200 
	C1400.276367,479.219055 1413.171753,475.379395 1426.312988,474.275330 
	C1445.440918,472.668274 1464.598389,471.627777 1483.971069,473.433136 
	C1519.010254,476.698486 1552.996460,483.494965 1584.999268,498.399384 
	C1631.726074,520.161194 1668.628052,552.543701 1692.204346,599.052551 
	C1713.020508,640.116455 1718.357056,683.939819 1715.451050,729.228394 
	C1712.933350,768.464783 1710.338257,807.696289 1707.812622,846.932190 
	C1705.650879,880.516113 1703.569946,914.105103 1701.398315,947.688354 
	C1698.280518,995.901489 1695.078369,1044.109131 1691.977905,1092.323364 
	C1689.754028,1126.904541 1687.678223,1161.494995 1685.463623,1196.076782 
	C1682.269409,1245.954712 1679.026245,1295.829590 1675.769897,1345.703491 
	C1674.141724,1370.638916 1672.383301,1395.566040 1670.785889,1420.503418 
	C1669.490479,1440.724365 1668.347778,1460.955200 1667.104858,1481.725464 
	C1671.963135,1482.337769 1676.170898,1483.075684 1680.409546,1483.369507 
	C1713.649170,1485.672852 1746.895386,1487.881958 1780.138428,1490.138550 
	C1811.386353,1492.259766 1842.636108,1494.358521 1873.879395,1496.548096 
	C1918.416504,1499.669678 1962.957642,1502.744629 2007.479736,1506.069458 
	C2039.628052,1508.470215 2071.745361,1511.285156 2103.888184,1513.763672 
	C2106.013428,1513.927612 2108.477783,1513.239868 2110.381348,1512.205933 
	C2150.762695,1490.272339 2190.968750,1468.012329 2231.529053,1446.416870 
	C2238.753662,1442.570312 2241.234375,1438.117554 2241.414551,1430.269531 
	C2242.133057,1398.952393 2243.024170,1367.626831 2244.646240,1336.345581 
	C2247.423828,1282.770874 2250.643555,1229.217529 2253.971436,1175.673462 
	C2256.596191,1133.440430 2259.698242,1091.237427 2262.521973,1049.016602 
	C2266.257568,993.164001 2270.507812,937.337830 2273.465576,881.443542 
	C2276.441895,825.199463 2278.003906,768.897461 2276.417969,712.536194 
	C2274.840576,656.475464 2269.719727,600.891113 2258.213867,545.904236 
	C2232.802979,424.463898 2169.456543,327.541901 2070.543701,253.282562 
	C2024.259521,218.534332 1973.849609,190.897919 1921.368408,167.001709 
	C1851.694336,135.277145 1779.299194,110.809380 1706.078735,88.806740 
	C1667.866577,77.324020 1629.202759,67.633217 1589.692993,61.279083 
	C1550.498535,54.975681 1511.168457,50.155411 1471.547974,48.477032 
	C1405.807861,45.692204 1340.353760,48.694302 1275.323486,59.668922 
	C1209.667358,70.749161 1146.116943,88.727928 1085.393066,116.157005 
	C1020.737915,145.361786 962.325989,183.804321 912.167236,234.347900 
	C854.463257,292.494690 814.089355,360.914795 789.833679,440.727844 
M396.393311,1986.493652 
	C397.909454,1989.072998 399.392609,1991.672241 400.946625,1994.228638 
	C420.178802,2025.863037 447.054749,2049.354492 480.319397,2064.738770 
	C531.543762,2088.429199 585.418579,2094.575928 640.828369,2083.801514 
	C684.761292,2075.258789 721.311157,2053.408203 750.452637,2019.406616 
	C787.280029,1976.437134 803.231873,1925.601562 805.551331,1869.983154 
	C806.495117,1847.350952 803.436340,1824.918457 797.859009,1802.944702 
	C789.099976,1768.435669 773.087097,1737.700439 747.819031,1712.440430 
	C723.014771,1687.644409 691.940063,1672.210571 659.198975,1662.286133 
	C616.859924,1649.452393 572.771057,1648.193115 528.968933,1654.777344 
	C504.474030,1658.459473 481.701111,1667.655640 461.184814,1682.139771 
	C429.940765,1704.197632 408.060059,1734.018799 390.249512,1767.110718 
	C374.713867,1795.975708 372.566833,1828.042603 370.552399,1859.826660 
	C369.611176,1874.677124 370.607941,1889.736328 371.785706,1904.617065 
	C374.039673,1933.095703 382.124451,1959.991089 396.393311,1986.493652 
M2414.245361,2223.253906 
	C2419.579590,2217.327881 2425.220947,2211.647949 2430.197510,2205.435303 
	C2459.794434,2168.486328 2475.090332,2125.692627 2479.463623,2079.087402 
	C2483.178711,2039.498047 2478.178955,2000.796387 2462.404785,1963.898682 
	C2450.443115,1935.918457 2433.468506,1911.695312 2409.598389,1892.446533 
	C2391.740723,1878.046021 2370.969727,1869.008667 2350.330811,1859.841919 
	C2340.706299,1855.567261 2330.425781,1852.337158 2320.124268,1850.100830 
	C2289.392578,1843.428833 2258.110840,1842.730835 2226.845703,1843.809448 
	C2208.203125,1844.452759 2190.022461,1848.390869 2172.419189,1854.883179 
	C2143.214111,1865.655029 2119.479492,1883.925903 2099.819336,1907.675537 
	C2081.064453,1930.331787 2064.429932,1954.315918 2055.622559,1982.862793 
	C2050.897217,1998.178833 2049.043945,2013.946167 2047.493530,2029.843262 
	C2044.247437,2063.127197 2043.968140,2096.199951 2052.269775,2128.884521 
	C2067.169922,2187.548340 2101.404297,2230.899414 2156.240234,2256.692383 
	C2201.503906,2277.982666 2249.522461,2284.391602 2299.156494,2278.340332 
	C2343.166016,2272.975342 2381.300781,2255.122559 2414.245361,2223.253906 
z"/>
<path fill="#D91319" opacity="1.000000" stroke="none" 
	d="
M3088.000000,1367.062744 
	C3086.763428,1374.276978 3085.507080,1380.550049 3084.294189,1386.831543 
	C3075.572998,1431.989868 3056.726807,1472.157471 3024.271240,1505.117188 
	C2995.463379,1534.372925 2960.395752,1552.674805 2919.991943,1559.837036 
	C2870.083252,1568.684326 2821.263428,1563.626099 2774.425293,1544.275879 
	C2715.566895,1519.959839 2677.812256,1476.692017 2661.417236,1414.927124 
	C2652.855713,1382.672852 2651.609375,1350.034424 2655.598145,1317.094360 
	C2657.349609,1302.631348 2658.804443,1288.049561 2661.898682,1273.849487 
	C2668.062744,1245.560303 2683.936768,1222.054077 2701.136475,1199.459961 
	C2717.619141,1177.807739 2737.159912,1159.629883 2761.522949,1146.866821 
	C2780.608887,1136.868286 2800.846924,1130.967651 2822.094238,1128.325073 
	C2858.362549,1123.814331 2894.342041,1126.916504 2929.977783,1133.842285 
	C2940.931641,1135.971313 2951.757080,1139.911987 2961.954590,1144.537109 
	C2981.909668,1153.587769 3002.067139,1162.486206 3019.177979,1176.693726 
	C3044.341553,1197.588135 3062.058594,1223.760254 3073.608154,1254.162476 
	C3080.589111,1272.539185 3085.664307,1291.428955 3087.258301,1311.615845 
	C3088.000000,1330.041748 3088.000000,1348.083618 3088.000000,1367.062744 
M2994.729980,1224.273193 
	C2974.465332,1203.769775 2948.143311,1194.224243 2922.115234,1184.152710 
	C2921.506348,1183.917114 2920.807617,1183.919922 2920.154297,1183.792480 
	C2894.299072,1178.747192 2868.167969,1176.743896 2841.887939,1177.785278 
	C2812.144775,1178.964233 2784.962646,1187.794556 2762.601562,1208.140747 
	C2743.473633,1225.544800 2728.820801,1246.447510 2717.367188,1269.620361 
	C2710.603027,1283.305054 2709.229248,1298.166260 2707.158447,1312.973267 
	C2703.500244,1339.130737 2703.035400,1365.167725 2708.287354,1391.145020 
	C2717.625488,1437.330933 2742.214111,1472.508667 2785.035645,1493.041748 
	C2823.802002,1511.630615 2865.153564,1516.886719 2907.489258,1509.962402 
	C2951.970459,1502.687134 2986.494629,1479.153931 3009.746826,1440.585571 
	C3036.248047,1396.628174 3043.709229,1348.891113 3033.432129,1298.693604 
	C3027.738037,1270.881592 3016.259521,1245.655029 2994.729980,1224.273193 
z"/>
<path fill="#D91319" opacity="1.000000" stroke="none" 
	d="
M4.160662,986.117859 
	C5.305706,979.001831 6.929828,971.924927 7.513607,964.763123 
	C10.167900,932.200439 23.962666,904.229065 42.340767,877.987000 
	C59.109314,854.043274 78.574432,832.989136 103.883614,817.760193 
	C128.962128,802.670044 156.392548,795.158752 185.272949,793.863892 
	C215.831818,792.493652 246.339050,793.937927 276.614136,799.472473 
	C292.918030,802.452942 307.591431,809.197144 322.370514,815.989136 
	C344.549500,826.181763 365.418945,838.143616 382.713837,855.958618 
	C405.776276,879.714417 420.578217,907.888306 429.751770,939.315125 
	C438.339600,968.735352 440.308167,998.877197 437.577698,1029.207275 
	C433.113647,1078.793701 416.402557,1123.841797 383.476501,1161.672729 
	C350.294189,1199.798096 308.185730,1222.145386 257.788208,1228.346558 
	C206.720642,1234.630005 157.503418,1227.562134 111.225998,1205.197632 
	C72.361763,1186.415527 43.047184,1157.271118 24.486286,1117.754028 
	C14.350383,1096.174194 7.879778,1073.699463 5.348815,1048.348022 
	C5.035542,1044.484619 5.294229,1042.184692 4.767540,1040.081543 
	C4.392451,1038.583862 2.960375,1037.351074 1.999999,1036.000000 
	C2.000000,1023.957703 2.000000,1011.915405 2.762462,998.645508 
	C3.736836,993.651245 3.948749,989.884583 4.160662,986.117859 
M371.736786,1084.532959 
	C390.536865,1038.561768 393.472229,991.814636 377.575073,944.513489 
	C369.509613,920.515198 356.372925,899.590576 336.616272,883.132812 
	C323.092072,871.866882 306.774384,865.831482 291.349426,858.145630 
	C285.161377,855.062378 278.544067,852.280151 271.808411,850.951599 
	C239.420334,844.563843 206.742310,841.630188 173.860336,846.431091 
	C150.663528,849.817993 129.956787,859.130188 112.480225,875.041382 
	C97.597130,888.591309 85.713417,904.556824 75.123268,921.570435 
	C68.214096,932.670227 62.632568,944.433716 60.373898,957.287964 
	C54.553455,990.412476 51.431660,1023.644409 58.107952,1057.131592 
	C67.823326,1105.862305 94.385361,1141.647827 139.991547,1161.858521 
	C175.590271,1177.634399 213.147980,1182.977417 251.900513,1177.645142 
	C278.747650,1173.950928 302.992096,1163.993042 324.507721,1147.186401 
	C345.494934,1130.792358 360.067932,1109.748169 371.736786,1084.532959 
z"/>
<path fill="#D91319" opacity="1.000000" stroke="none" 
	d="
M1340.937256,2480.000000 
	C1332.608154,2478.686523 1325.208374,2477.415527 1317.825562,2476.052979 
	C1284.430054,2469.888672 1253.014404,2458.755615 1225.275879,2438.647949 
	C1187.345459,2411.151855 1163.631470,2374.148438 1152.262695,2328.936279 
	C1144.041138,2296.239502 1144.252197,2263.190918 1147.488770,2229.913330 
	C1149.034790,2214.018555 1150.874390,2198.251953 1155.592041,2182.937012 
	C1164.384766,2154.391602 1181.012817,2130.405518 1199.754883,2107.750000 
	C1219.399292,2084.003906 1243.096436,2065.670654 1272.318604,2054.949219 
	C1291.192261,2048.024658 1310.651245,2044.224243 1330.710571,2043.687744 
	C1356.995605,2042.984619 1383.223022,2043.846558 1409.252075,2047.916992 
	C1423.054810,2050.075439 1436.590942,2053.126953 1449.335327,2059.269775 
	C1467.586914,2068.066895 1486.481323,2075.569824 1503.066895,2087.563721 
	C1536.774292,2111.939209 1557.494507,2145.301514 1569.927124,2184.290283 
	C1579.751587,2215.100098 1582.535889,2246.860596 1579.504761,2278.875000 
	C1575.056274,2325.855957 1559.674683,2368.982910 1529.818848,2406.080078 
	C1499.935181,2443.211670 1461.327393,2466.432373 1414.577026,2475.933838 
	C1408.734985,2477.121582 1402.780640,2477.756104 1396.439209,2479.323242 
	C1377.958252,2480.000000 1359.916382,2480.000000 1340.937256,2480.000000 
M1220.770020,2165.747559 
	C1212.543335,2177.584473 1205.386963,2190.196289 1202.673584,2204.328125 
	C1196.200684,2238.042236 1193.133179,2272.011475 1199.697144,2306.178467 
	C1209.524414,2357.332031 1237.722046,2393.970215 1286.194946,2413.822266 
	C1317.987549,2426.842529 1351.169800,2431.682617 1385.599976,2428.472412 
	C1404.731445,2426.688721 1422.892212,2422.026123 1440.040283,2413.672607 
	C1475.517090,2396.389893 1499.319336,2368.113281 1514.230347,2332.190674 
	C1529.641602,2295.062500 1533.529541,2256.506104 1525.528931,2217.044678 
	C1521.204102,2195.713623 1513.452026,2175.637207 1500.885742,2157.607666 
	C1485.907104,2136.117432 1465.237671,2122.077881 1441.496948,2112.127930 
	C1431.123169,2107.780029 1420.828125,2102.388184 1409.951416,2100.259277 
	C1379.905273,2094.378906 1349.451294,2092.168457 1318.862915,2095.829102 
	C1303.220215,2097.700928 1288.332275,2102.311768 1274.614258,2110.176514 
	C1251.802368,2123.254639 1235.255005,2142.510010 1220.770020,2165.747559 
z"/>
<path fill="#F2B2B4" opacity="1.000000" stroke="none" 
	d="
M1.999999,1036.856934 
	C2.960375,1037.351074 4.392451,1038.583862 4.767540,1040.081543 
	C5.294229,1042.184692 5.035542,1044.484619 5.139911,1047.513916 
	C4.466593,1048.237061 3.766115,1048.146729 2.532818,1048.028198 
	C2.000000,1044.571289 2.000000,1041.142578 1.999999,1036.856934 
z"/>
<path fill="#F1AFB2" opacity="1.000000" stroke="none" 
	d="
M3.623729,986.029175 
	C3.948749,989.884583 3.736836,993.651245 2.762462,997.708984 
	C2.000000,994.571289 2.000000,991.142578 2.000000,986.856934 
	C2.362265,985.980164 2.724531,985.960266 3.623729,986.029175 
z"/>
<path fill="#D91217" opacity="1.000000" stroke="none" 
	d="
M2258.830078,1684.803467 
	C2240.413574,1684.308716 2222.823975,1683.207520 2205.330078,1684.061646 
	C2179.178955,1685.338379 2154.434082,1693.135986 2130.558594,1703.602295 
	C2087.917725,1722.295044 2048.517334,1746.304443 2013.843628,1777.449463 
	C1974.190918,1813.066650 1942.121094,1854.188965 1925.332520,1905.693359 
	C1917.973389,1928.269775 1914.623047,1951.455688 1914.242920,1975.221680 
	C1913.747314,2006.211548 1918.397705,2036.740356 1921.198730,2067.452393 
	C1923.946167,2097.577637 1924.726318,2127.510010 1912.451416,2156.451660 
	C1891.661621,2205.469727 1845.271729,2234.430908 1796.036133,2234.460449 
	C1775.280273,2234.472900 1755.768799,2230.698486 1737.812866,2220.118164 
	C1724.945801,2212.536377 1714.340942,2202.591309 1708.172607,2188.772949 
	C1696.661987,2162.986328 1685.728516,2136.941406 1674.112671,2111.203369 
	C1657.047852,2073.391846 1636.436646,2037.757568 1606.704590,2008.280151 
	C1572.091064,1973.963257 1530.311646,1953.544922 1482.272949,1945.835571 
	C1455.397705,1941.522705 1428.399414,1938.870361 1401.167847,1937.391113 
	C1358.640381,1935.081055 1316.927246,1938.618408 1276.181885,1950.858887 
	C1222.699463,1966.925781 1181.406494,1999.533691 1151.235474,2046.195190 
	C1137.154785,2067.971924 1124.407471,2090.609863 1110.379761,2112.422852 
	C1104.312744,2121.857422 1096.657837,2130.293945 1089.452637,2138.958008 
	C1087.610962,2141.172363 1084.968384,2143.444336 1082.295044,2144.125244 
	C1065.974243,2148.283447 1049.951416,2153.630371 1032.604980,2146.873535 
	C1020.173523,2142.031494 1007.952820,2137.079346 996.374146,2130.433594 
	C974.177551,2117.693359 951.705139,2105.428223 929.627869,2092.487305 
	C919.039246,2086.280518 909.603699,2078.494873 901.362122,2069.148926 
	C886.603149,2052.412598 882.704651,2033.309937 889.170593,2012.535767 
	C893.492371,1998.650879 899.246216,1985.114136 905.444275,1971.931641 
	C917.324402,1946.663940 930.078308,1921.809082 938.416931,1895.026367 
	C944.855164,1874.347656 949.820984,1853.379639 950.264771,1831.624634 
	C950.581909,1816.078979 950.341125,1800.521606 950.293335,1784.969604 
	C950.288269,1783.327515 950.525879,1781.037720 949.597656,1780.149902 
	C943.420349,1774.243896 944.005737,1766.189819 942.544861,1758.868408 
	C935.864258,1725.387939 921.321106,1695.256714 902.589844,1667.159424 
	C890.059265,1648.363281 876.524231,1630.186646 862.620911,1612.370728 
	C850.023865,1596.228760 832.949402,1584.772339 816.682434,1572.755615 
	C792.245361,1554.703369 765.765320,1540.109375 737.062073,1529.795654 
	C709.030396,1519.723389 680.222168,1514.223633 650.354980,1513.564819 
	C617.316589,1512.836426 584.858215,1517.760132 552.156677,1521.107666 
	C528.027344,1523.577637 507.194397,1534.617310 484.608307,1540.825928 
	C472.179077,1544.242310 459.598206,1548.254517 446.883087,1549.163208 
	C433.955109,1550.087158 421.356415,1546.313721 411.167908,1536.794312 
	C402.756042,1528.934570 396.558685,1519.552612 390.725769,1509.850098 
	C371.366302,1477.647461 352.349243,1445.253418 337.572388,1410.597534 
	C336.012329,1406.938843 334.872864,1403.103516 333.412872,1399.399536 
	C326.589355,1382.087524 331.857605,1367.591919 343.836578,1354.704956 
	C356.868805,1340.684937 373.076050,1330.700806 388.391937,1319.543091 
	C408.264435,1305.065918 428.443634,1290.879272 447.235748,1275.075195 
	C493.651550,1236.039917 522.897888,1186.608887 534.485596,1126.771851 
	C539.497131,1100.893555 542.639038,1074.856445 541.518555,1048.601440 
	C538.295227,973.072510 517.589233,903.437622 470.011871,843.247375 
	C446.977051,814.105957 418.944702,790.835022 385.752014,774.432373 
	C369.163330,766.234802 351.222107,760.770935 333.882935,754.095825 
	C303.655640,742.459351 277.963928,724.945374 260.268250,697.142029 
	C252.245575,684.536743 247.454849,671.028503 248.263702,655.741028 
	C249.102768,639.882568 260.918793,630.553772 273.149719,631.634521 
	C290.328094,633.152649 307.540802,634.289124 324.712555,635.873535 
	C368.947998,639.954895 413.170319,644.179382 457.395355,648.373230 
	C485.113190,651.001648 512.835999,653.583130 540.539490,656.356323 
	C577.137451,660.020020 613.708496,663.954529 650.311340,667.567810 
	C669.750854,669.486816 689.233154,670.973450 708.546143,672.642334 
	C710.445862,680.461670 702.041443,877.774292 699.232910,930.321228 
	C694.644470,1016.170105 691.559753,1102.098877 687.744202,1187.989624 
	C683.930359,1273.843140 679.998291,1359.691284 676.088928,1446.186646 
	C677.800354,1446.632080 679.588135,1447.417114 681.416321,1447.526367 
	C717.670959,1449.690430 753.932312,1451.739746 790.187927,1453.887085 
	C843.074036,1457.019165 895.955750,1460.224365 948.840942,1463.372314 
	C985.096008,1465.530518 1021.354187,1467.635986 1057.610107,1469.780396 
	C1088.543457,1471.609863 1119.471069,1473.545166 1150.413940,1475.196167 
	C1154.247437,1475.400635 1158.597778,1475.053711 1161.968262,1473.427612 
	C1209.346191,1450.567749 1256.596069,1427.442993 1303.869141,1404.366089 
	C1304.446533,1404.084106 1304.919189,1403.587280 1306.218140,1402.599976 
	C1307.361694,1384.310059 1308.769653,1365.397095 1309.688354,1346.460449 
	C1313.369385,1270.597534 1316.602417,1194.711792 1320.585938,1118.865112 
	C1323.346802,1066.296509 1326.409424,1013.726807 1330.531860,961.251404 
	C1334.992188,904.475159 1340.378906,847.759216 1346.347900,791.120972 
	C1348.288574,772.706848 1353.332886,754.619812 1357.183228,735.248169 
	C1466.587036,745.774902 1574.656738,756.173218 1683.174072,766.614563 
	C1682.584717,776.959534 1682.153320,786.539307 1681.474854,796.101562 
	C1678.243896,841.630493 1674.982300,887.157288 1671.663086,932.679810 
	C1667.302246,992.488953 1662.812866,1052.288696 1658.501465,1112.101440 
	C1655.483276,1153.973022 1652.750610,1195.865112 1649.744507,1237.737671 
	C1646.094482,1288.579712 1642.244751,1339.407471 1638.570923,1390.247803 
	C1636.265503,1422.150024 1634.128418,1454.064331 1631.908325,1485.972778 
	C1631.102539,1497.552368 1630.274414,1509.130371 1629.403320,1521.462158 
	C1637.000122,1522.183350 1643.846436,1523.026855 1650.718506,1523.453247 
	C1687.301270,1525.723022 1723.894409,1527.822632 1760.476196,1530.105713 
	C1809.028198,1533.135864 1857.571655,1536.306274 1906.121704,1539.368530 
	C1940.705444,1541.549805 1975.294678,1543.640137 2009.880127,1545.794922 
	C2028.834839,1546.976074 2047.890381,1547.382690 2066.697754,1549.749634 
	C2076.666016,1551.004272 2084.639404,1546.818726 2093.389160,1544.598999 
	C2104.633301,1541.746460 2115.885986,1539.309692 2127.570068,1539.666382 
	C2127.903076,1539.676514 2128.260986,1539.748047 2128.566650,1539.656006 
	C2143.281738,1535.230469 2159.239014,1535.697021 2173.313721,1529.012207 
	C2201.583984,1515.584717 2229.646973,1501.720825 2257.787354,1488.020142 
	C2260.161133,1486.864502 2262.473145,1485.581543 2265.216309,1484.147095 
	C2265.406738,1482.577148 2265.703613,1480.994141 2265.776123,1479.400757 
	C2267.989990,1430.800415 2269.556396,1382.160767 2272.535400,1333.607666 
	C2276.248779,1273.089844 2281.068115,1212.639038 2285.518066,1152.167358 
	C2288.329590,1113.958252 2291.514893,1075.775879 2294.217041,1037.559326 
	C2298.071289,983.056702 2301.710449,928.538452 2305.267822,874.015625 
	C2306.048828,862.049500 2306.061523,850.034302 2306.510986,838.044922 
	C2306.644043,834.493408 2307.061279,830.952576 2307.415283,826.576965 
	C2337.306152,829.596558 2366.227051,832.586792 2395.163818,835.414673 
	C2411.666260,837.027466 2428.201660,838.305298 2444.710449,839.858337 
	C2472.100098,842.434875 2499.478027,845.139343 2526.865479,847.740051 
	C2571.419434,851.971008 2615.978760,856.147949 2660.533203,860.374695 
	C2688.253418,863.004272 2715.969238,865.676270 2743.685791,868.342468 
	C2769.743896,870.849243 2795.883545,872.727356 2821.835938,876.059387 
	C2851.819336,879.908875 2865.817871,903.899414 2863.357422,929.820007 
	C2862.386719,940.048584 2859.050537,949.786072 2854.301758,959.147217 
	C2845.084961,977.316528 2831.391846,989.585999 2811.816162,995.781982 
	C2795.570312,1000.923950 2778.994385,1003.884827 2762.145996,1005.699219 
	C2737.089111,1008.397461 2711.914795,1010.376709 2687.412842,1016.714844 
	C2646.332520,1027.341309 2610.279541,1047.540283 2579.475586,1076.410278 
	C2562.232178,1092.571167 2548.402832,1111.911987 2535.909912,1132.049927 
	C2507.813477,1177.340576 2486.837891,1225.455688 2477.053223,1278.172974 
	C2465.430420,1340.793579 2471.162842,1400.902832 2504.641113,1456.139282 
	C2518.900879,1479.666748 2536.074951,1501.461060 2552.405518,1523.689941 
	C2565.798828,1541.921265 2580.394775,1559.489868 2588.450684,1580.866455 
	C2606.729980,1629.372314 2602.258301,1674.916016 2567.934814,1715.428711 
	C2546.614990,1740.593262 2519.378174,1755.227783 2486.258301,1757.976074 
	C2471.013672,1759.241089 2456.371094,1756.560425 2443.098389,1748.667358 
	C2436.154053,1744.537720 2429.031494,1741.770020 2420.943604,1740.688721 
	C2400.919922,1738.011475 2382.765381,1729.636475 2364.708008,1721.135742 
	C2338.245850,1708.678345 2312.031006,1695.566162 2283.155518,1689.337158 
	C2275.391602,1687.662354 2267.521240,1686.480225 2258.830078,1684.803467 
z"/>
<path fill="#DA151B" opacity="1.000000" stroke="none" 
	d="
M790.006409,439.946289 
	C814.089355,360.914795 854.463257,292.494690 912.167236,234.347900 
	C962.325989,183.804321 1020.737915,145.361786 1085.393066,116.157005 
	C1146.116943,88.727928 1209.667358,70.749161 1275.323486,59.668922 
	C1340.353760,48.694302 1405.807861,45.692204 1471.547974,48.477032 
	C1511.168457,50.155411 1550.498535,54.975681 1589.692993,61.279083 
	C1629.202759,67.633217 1667.866577,77.324020 1706.078735,88.806740 
	C1779.299194,110.809380 1851.694336,135.277145 1921.368408,167.001709 
	C1973.849609,190.897919 2024.259521,218.534332 2070.543701,253.282562 
	C2169.456543,327.541901 2232.802979,424.463898 2258.213867,545.904236 
	C2269.719727,600.891113 2274.840576,656.475464 2276.417969,712.536194 
	C2278.003906,768.897461 2276.441895,825.199463 2273.465576,881.443542 
	C2270.507812,937.337830 2266.257568,993.164001 2262.521973,1049.016602 
	C2259.698242,1091.237427 2256.596191,1133.440430 2253.971436,1175.673462 
	C2250.643555,1229.217529 2247.423828,1282.770874 2244.646240,1336.345581 
	C2243.024170,1367.626831 2242.133057,1398.952393 2241.414551,1430.269531 
	C2241.234375,1438.117554 2238.753662,1442.570312 2231.529053,1446.416870 
	C2190.968750,1468.012329 2150.762695,1490.272339 2110.381348,1512.205933 
	C2108.477783,1513.239868 2106.013428,1513.927612 2103.888184,1513.763672 
	C2071.745361,1511.285156 2039.628052,1508.470215 2007.479736,1506.069458 
	C1962.957642,1502.744629 1918.416504,1499.669678 1873.879395,1496.548096 
	C1842.636108,1494.358521 1811.386353,1492.259766 1780.138428,1490.138550 
	C1746.895386,1487.881958 1713.649170,1485.672852 1680.409546,1483.369507 
	C1676.170898,1483.075684 1671.963135,1482.337769 1667.104858,1481.725464 
	C1668.347778,1460.955200 1669.490479,1440.724365 1670.785889,1420.503418 
	C1672.383301,1395.566040 1674.141724,1370.638916 1675.769897,1345.703491 
	C1679.026245,1295.829590 1682.269409,1245.954712 1685.463623,1196.076782 
	C1687.678223,1161.494995 1689.754028,1126.904541 1691.977905,1092.323364 
	C1695.078369,1044.109131 1698.280518,995.901489 1701.398315,947.688354 
	C1703.569946,914.105103 1705.650879,880.516113 1707.812622,846.932190 
	C1710.338257,807.696289 1712.933350,768.464783 1715.451050,729.228394 
	C1718.357056,683.939819 1713.020508,640.116455 1692.204346,599.052551 
	C1668.628052,552.543701 1631.726074,520.161194 1584.999268,498.399384 
	C1552.996460,483.494965 1519.010254,476.698486 1483.971069,473.433136 
	C1464.598389,471.627777 1445.440918,472.668274 1426.312988,474.275330 
	C1413.171753,475.379395 1400.276367,479.219055 1387.203979,481.442200 
	C1382.885254,482.176666 1381.172363,485.136932 1379.167236,488.149078 
	C1370.036987,501.863342 1364.906860,517.296326 1359.618408,532.729187 
	C1346.070068,572.266479 1338.505493,613.138916 1332.042847,654.254395 
	C1321.692993,720.098877 1314.520752,786.322327 1309.668335,852.779663 
	C1305.301147,912.591187 1301.000610,972.418640 1297.746216,1032.297607 
	C1293.767578,1105.499878 1290.963867,1178.765869 1287.545532,1251.999146 
	C1285.758789,1290.278687 1283.748779,1328.547974 1281.817749,1366.820679 
	C1281.718140,1368.797485 1281.414429,1370.763916 1281.160522,1373.162598 
	C1270.115967,1379.217407 1259.019287,1385.251587 1247.968506,1391.368652 
	C1219.716431,1407.007568 1191.498535,1422.708252 1163.232544,1438.322144 
	C1158.059082,1441.180176 1152.850830,1444.049683 1147.411255,1446.321533 
	C1144.514648,1447.531250 1141.050903,1448.085083 1137.906738,1447.892822 
	C1103.318359,1445.780273 1068.740601,1443.491333 1034.163940,1441.191040 
	C1009.894775,1439.576538 985.633484,1437.841064 961.365234,1436.211548 
	C913.161316,1432.974976 864.955811,1429.761108 816.749329,1426.563599 
	C784.832581,1424.446533 752.912476,1422.379639 720.995178,1420.270264 
	C718.410645,1420.099609 715.836365,1419.774536 712.504517,1419.447388 
	C713.254700,1406.389648 713.893066,1393.842285 714.713013,1381.306763 
	C716.365845,1356.038574 718.152283,1330.779175 719.820923,1305.511963 
	C723.048462,1256.638672 726.246704,1207.763428 729.429810,1158.887085 
	C731.573486,1125.969971 733.649780,1093.048584 735.793213,1060.131470 
	C738.997253,1010.922546 742.250366,961.716919 745.450989,912.507812 
	C747.591919,879.590637 749.652832,846.668335 751.794189,813.751221 
	C754.995544,764.542114 758.250000,715.336487 761.455078,666.127625 
	C763.577332,633.543396 765.823853,600.966125 767.706909,568.367920 
	C770.214294,524.960938 777.400208,482.397797 790.006409,439.946289 
M1995.903198,244.418533 
	C1995.329224,244.483261 1994.755127,244.548004 1994.181152,244.612732 
	C1994.699951,245.160629 1995.218750,245.708527 1996.207642,247.582718 
	C1996.978882,247.459869 1997.750000,247.337036 1998.521240,247.214172 
	C1997.883911,246.613770 1997.246704,246.013367 1995.903198,244.418533 
M1863.584229,193.250168 
	C1851.615479,186.727737 1839.785034,179.935135 1827.653076,173.731796 
	C1785.231812,152.040512 1740.740723,135.699631 1695.232788,121.705666 
	C1626.173462,100.469521 1555.828979,86.570335 1483.671509,82.460304 
	C1398.735107,77.622398 1314.536011,83.055832 1231.495239,102.323273 
	C1159.644287,118.994415 1091.330322,144.718262 1028.716309,184.182220 
	C893.424622,269.452850 818.096313,392.061859 802.502319,551.032227 
	C798.373840,593.119629 796.742126,635.452759 794.006775,677.675903 
	C791.745117,712.584900 789.593567,747.501099 787.308594,782.408630 
	C784.305664,828.284546 781.209351,874.154480 778.172546,920.028198 
	C775.619812,958.589539 773.035889,997.148926 770.614868,1035.718628 
	C770.207764,1042.204224 770.557495,1048.737305 770.557495,1055.697632 
	C895.539368,1064.087280 1020.010803,1072.442749 1145.031372,1080.834961 
	C1145.397217,1076.103271 1145.694214,1072.843994 1145.893677,1069.578735 
	C1146.807861,1054.613770 1147.625366,1039.642700 1148.603760,1024.682007 
	C1152.278687,968.499573 1156.072754,912.325012 1159.687378,856.138733 
	C1162.724487,808.927063 1165.407471,761.692017 1168.591431,714.490540 
	C1169.800537,696.564575 1170.961792,678.537231 1173.877441,660.841492 
	C1186.790894,582.465576 1227.217896,521.580750 1296.137207,482.551422 
	C1395.702271,426.167206 1499.494385,422.738495 1603.006470,470.491791 
	C1705.058594,517.571594 1754.241455,611.315796 1749.289429,720.833618 
	C1748.115967,746.787109 1745.855103,772.690247 1744.203979,798.623474 
	C1741.875000,835.197266 1739.727295,871.782715 1737.360229,908.354004 
	C1733.056763,974.844727 1728.631836,1041.327637 1724.307129,1107.817017 
	C1723.794434,1115.702393 1723.592651,1123.608032 1723.197998,1132.615234 
	C1847.482178,1140.496460 1970.999390,1148.329102 2095.291992,1156.210938 
	C2095.786865,1148.745605 2096.210938,1142.171631 2096.660645,1135.599487 
	C2100.368164,1081.424438 2104.134521,1027.253418 2107.773438,973.073730 
	C2110.787354,928.197815 2113.612549,883.309204 2116.592529,838.430908 
	C2120.909180,773.416565 2125.938477,708.440918 2129.394287,643.381348 
	C2131.387451,605.858398 2129.214600,568.356262 2121.957031,531.258301 
	C2110.519287,472.792053 2088.734131,418.688751 2055.807861,368.972198 
	C2029.735840,329.605530 1998.730103,294.665985 1963.101807,263.820068 
	C1932.602051,237.413956 1899.824219,214.139282 1863.584229,193.250168 
M1138.503174,1181.487061 
	C1139.963135,1159.336426 1141.423218,1137.185669 1142.938232,1114.199463 
	C1017.230835,1105.750122 892.783569,1097.385498 767.277832,1088.949829 
	C760.751770,1189.372070 754.304443,1288.582520 747.798340,1388.697754 
	C873.548401,1397.014893 998.295044,1405.265625 1123.822388,1413.568115 
	C1128.718994,1336.177124 1133.553345,1259.772583 1138.503174,1181.487061 
M2081.635498,1364.291870 
	C2085.414307,1306.308228 2089.193359,1248.324585 2093.025391,1189.524780 
	C1968.262573,1181.619263 1844.812378,1173.796997 1720.683350,1165.931641 
	C1714.542114,1261.558472 1708.471436,1356.085083 1702.354370,1451.334595 
	C1826.548828,1459.842407 1949.849487,1468.759521 2073.677490,1477.021240 
	C2074.487061,1466.377686 2075.240234,1457.127930 2075.885010,1447.870850 
	C2077.782715,1420.634155 2079.636963,1393.394287 2081.635498,1364.291870 
M2148.073730,492.937439 
	C2159.783691,537.694946 2165.410889,583.272278 2163.552490,629.435669 
	C2161.743896,674.357605 2158.216797,719.212769 2155.270020,764.085754 
	C2152.323486,808.957520 2149.122314,853.812378 2146.105713,898.679626 
	C2143.781982,933.245728 2141.613281,967.822205 2139.302002,1002.389160 
	C2136.213135,1048.586426 2133.041992,1094.778076 2129.948242,1140.974976 
	C2129.753174,1143.888916 2129.922852,1146.827271 2129.922852,1150.929199 
	C2161.689697,1143.641724 2192.616455,1136.546997 2223.460693,1129.471191 
	C2225.598633,1100.429688 2227.808594,1072.557373 2229.668457,1044.661621 
	C2232.748535,998.462097 2235.780029,952.257935 2238.511719,906.036865 
	C2242.680176,835.505737 2245.583984,764.956299 2242.414795,694.266907 
	C2240.307617,647.272095 2235.782471,600.611328 2225.919678,554.571899 
	C2213.891357,498.423920 2193.966553,445.446198 2162.368408,397.163483 
	C2121.565430,334.815369 2066.490234,287.785339 2003.723633,248.981277 
	C2002.517090,248.235291 2000.919922,248.121277 1999.504883,247.712494 
	C2000.881104,251.778976 2003.296631,254.301697 2005.815552,256.716614 
	C2074.131104,322.214325 2123.111084,399.405396 2148.073730,492.937439 
M1199.676270,754.645691 
	C1192.543457,861.529968 1185.727295,968.433228 1178.986938,1076.467285 
	C1207.713989,1069.877197 1234.849731,1063.652100 1262.378906,1057.336792 
	C1262.777466,1053.175049 1263.231567,1049.567383 1263.453247,1045.945557 
	C1266.239624,1000.395935 1268.729980,954.826477 1271.837280,909.299011 
	C1274.331909,872.750000 1276.701782,836.157166 1280.674683,799.752686 
	C1286.415894,747.143433 1292.637573,694.549988 1300.430908,642.214355 
	C1305.414551,608.747009 1313.200684,575.667542 1320.546387,542.595398 
	C1323.606079,528.820068 1328.788452,515.516296 1333.343384,500.915161 
	C1329.760376,502.342010 1326.961548,503.155914 1324.447388,504.501526 
	C1257.369507,540.400940 1216.781616,595.493103 1206.116089,671.112366 
	C1202.310669,698.091797 1201.758667,725.530029 1199.676270,754.645691 
M2146.498779,1181.487549 
	C2140.056396,1182.960205 2133.614258,1184.432983 2126.807861,1185.988892 
	C2120.534424,1282.329346 2113.780029,1377.975708 2107.549072,1475.579834 
	C2142.209717,1456.760742 2174.869141,1439.028320 2207.177246,1421.486572 
	C2211.588867,1335.979248 2215.973877,1250.988892 2220.433350,1164.554810 
	C2195.795898,1170.153809 2171.945801,1175.573853 2146.498779,1181.487549 
M1162.705444,1325.853027 
	C1161.193115,1350.610474 1159.680786,1375.367798 1158.118408,1400.943359 
	C1160.539185,1400.253418 1161.878540,1400.116089 1162.971924,1399.524414 
	C1190.208008,1384.785400 1217.376587,1369.921387 1244.675415,1355.300415 
	C1248.945923,1353.013062 1249.657837,1349.809937 1249.831543,1345.528442 
	C1251.222656,1311.234741 1252.766235,1276.947021 1254.297974,1242.659058 
	C1256.008179,1204.377808 1257.873413,1166.103149 1259.413452,1127.815186 
	C1259.878662,1116.248047 1259.485474,1104.646240 1259.485474,1092.270752 
	C1231.804443,1098.635864 1204.120850,1105.001587 1176.659546,1111.316284 
	C1173.767212,1155.777466 1170.945312,1198.990601 1168.148560,1242.205444 
	C1166.384277,1269.467651 1164.657593,1296.732422 1162.705444,1325.853027 
z"/>
<path fill="#D91319" opacity="1.000000" stroke="none" 
	d="
M396.110992,1985.811646 
	C382.124451,1959.991089 374.039673,1933.095703 371.785706,1904.617065 
	C370.607941,1889.736328 369.611176,1874.677124 370.552399,1859.826660 
	C372.566833,1828.042603 374.713867,1795.975708 390.249512,1767.110718 
	C408.060059,1734.018799 429.940765,1704.197632 461.184814,1682.139771 
	C481.701111,1667.655640 504.474030,1658.459473 528.968933,1654.777344 
	C572.771057,1648.193115 616.859924,1649.452393 659.198975,1662.286133 
	C691.940063,1672.210571 723.014771,1687.644409 747.819031,1712.440430 
	C773.087097,1737.700439 789.099976,1768.435669 797.859009,1802.944702 
	C803.436340,1824.918457 806.495117,1847.350952 805.551331,1869.983154 
	C803.231873,1925.601562 787.280029,1976.437134 750.452637,2019.406616 
	C721.311157,2053.408203 684.761292,2075.258789 640.828369,2083.801514 
	C585.418579,2094.575928 531.543762,2088.429199 480.319397,2064.738770 
	C447.054749,2049.354492 420.178802,2025.863037 400.946625,1994.228638 
	C399.392609,1991.672241 397.909454,1989.072998 396.110992,1985.811646 
M677.837891,2014.854126 
	C703.809448,1999.343750 722.476990,1977.041016 735.025269,1950.031860 
	C756.228455,1904.394043 760.792419,1856.972290 746.069580,1808.429077 
	C737.792969,1781.140259 723.722534,1757.321777 700.816650,1739.546387 
	C687.288269,1729.048096 671.422791,1722.771851 656.023865,1715.742065 
	C649.712341,1712.860596 643.181702,1709.761963 636.438599,1708.642944 
	C605.968201,1703.585938 575.371826,1699.906128 544.393982,1704.159424 
	C527.409058,1706.491577 511.337982,1711.259277 496.689117,1720.372437 
	C474.096863,1734.427368 457.888336,1754.458130 443.987305,1776.637451 
	C436.904907,1787.937622 430.407257,1799.525391 427.747742,1812.815430 
	C421.183289,1845.619019 418.636383,1878.724854 424.231720,1911.797485 
	C433.247681,1965.089111 462.736084,2002.843750 513.204407,2023.151855 
	C540.000916,2033.934326 568.121155,2038.276733 597.012024,2037.667480 
	C625.425842,2037.068237 652.209839,2030.668213 677.837891,2014.854126 
z"/>
<path fill="#D91319" opacity="1.000000" stroke="none" 
	d="
M2413.744629,2223.754883 
	C2381.300781,2255.122559 2343.166016,2272.975342 2299.156494,2278.340332 
	C2249.522461,2284.391602 2201.503906,2277.982666 2156.240234,2256.692383 
	C2101.404297,2230.899414 2067.169922,2187.548340 2052.269775,2128.884521 
	C2043.968140,2096.199951 2044.247437,2063.127197 2047.493530,2029.843262 
	C2049.043945,2013.946167 2050.897217,1998.178833 2055.622559,1982.862793 
	C2064.429932,1954.315918 2081.064453,1930.331787 2099.819336,1907.675537 
	C2119.479492,1883.925903 2143.214111,1865.655029 2172.419189,1854.883179 
	C2190.022461,1848.390869 2208.203125,1844.452759 2226.845703,1843.809448 
	C2258.110840,1842.730835 2289.392578,1843.428833 2320.124268,1850.100830 
	C2330.425781,1852.337158 2340.706299,1855.567261 2350.330811,1859.841919 
	C2370.969727,1869.008667 2391.740723,1878.046021 2409.598389,1892.446533 
	C2433.468506,1911.695312 2450.443115,1935.918457 2462.404785,1963.898682 
	C2478.178955,2000.796387 2483.178711,2039.498047 2479.463623,2079.087402 
	C2475.090332,2125.692627 2459.794434,2168.486328 2430.197510,2205.435303 
	C2425.220947,2211.647949 2419.579590,2217.327881 2413.744629,2223.754883 
M2428.318848,2073.349121 
	C2428.766357,2068.076172 2429.879639,2062.758545 2429.529785,2057.539062 
	C2428.666504,2044.665039 2427.885010,2031.706421 2425.700195,2019.017578 
	C2421.885742,1996.861694 2413.759521,1976.225464 2400.872803,1957.617310 
	C2385.962646,1936.087280 2365.244385,1922.097046 2341.521240,1912.137573 
	C2331.153564,1907.784668 2320.860840,1902.400269 2309.988037,1900.265991 
	C2279.953369,1894.369873 2249.492188,1892.074707 2218.934082,1895.849609 
	C2197.825195,1898.457275 2177.975586,1905.154663 2161.569580,1919.127563 
	C2128.560547,1947.241333 2104.241211,1980.461304 2099.172363,2025.348511 
	C2096.064209,2052.872803 2094.413086,2080.235840 2099.910645,2107.539551 
	C2110.095215,2158.120117 2138.304932,2194.402832 2186.501953,2213.944580 
	C2218.671631,2226.988037 2252.181152,2231.869141 2286.888916,2228.365479 
	C2327.833008,2224.231689 2361.985107,2207.241699 2388.328857,2175.420410 
	C2412.398193,2146.345947 2424.610840,2112.424316 2428.318848,2073.349121 
z"/>
<path fill="#FFFEFE" opacity="1.000000" stroke="none" 
	d="
M2995.229492,1224.772705 
	C3016.259521,1245.655029 3027.738037,1270.881592 3033.432129,1298.693604 
	C3043.709229,1348.891113 3036.248047,1396.628174 3009.746826,1440.585571 
	C2986.494629,1479.153931 2951.970459,1502.687134 2907.489258,1509.962402 
	C2865.153564,1516.886719 2823.802002,1511.630615 2785.035645,1493.041748 
	C2742.214111,1472.508667 2717.625488,1437.330933 2708.287354,1391.145020 
	C2703.035400,1365.167725 2703.500244,1339.130737 2707.158447,1312.973267 
	C2709.229248,1298.166260 2710.603027,1283.305054 2717.367188,1269.620361 
	C2728.820801,1246.447510 2743.473633,1225.544800 2762.601562,1208.140747 
	C2784.962646,1187.794556 2812.144775,1178.964233 2841.887939,1177.785278 
	C2868.167969,1176.743896 2894.299072,1178.747192 2920.154297,1183.792480 
	C2920.807617,1183.919922 2921.506348,1183.917114 2922.115234,1184.152710 
	C2948.143311,1194.224243 2974.465332,1203.769775 2995.229492,1224.772705 
z"/>
<path fill="#FFFEFE" opacity="1.000000" stroke="none" 
	d="
M371.457794,1085.240845 
	C360.067932,1109.748169 345.494934,1130.792358 324.507721,1147.186401 
	C302.992096,1163.993042 278.747650,1173.950928 251.900513,1177.645142 
	C213.147980,1182.977417 175.590271,1177.634399 139.991547,1161.858521 
	C94.385361,1141.647827 67.823326,1105.862305 58.107952,1057.131592 
	C51.431660,1023.644409 54.553455,990.412476 60.373898,957.287964 
	C62.632568,944.433716 68.214096,932.670227 75.123268,921.570435 
	C85.713417,904.556824 97.597130,888.591309 112.480225,875.041382 
	C129.956787,859.130188 150.663528,849.817993 173.860336,846.431091 
	C206.742310,841.630188 239.420334,844.563843 271.808411,850.951599 
	C278.544067,852.280151 285.161377,855.062378 291.349426,858.145630 
	C306.774384,865.831482 323.092072,871.866882 336.616272,883.132812 
	C356.372925,899.590576 369.509613,920.515198 377.575073,944.513489 
	C393.472229,991.814636 390.536865,1038.561768 371.457794,1085.240845 
z"/>
<path fill="#FFFEFE" opacity="1.000000" stroke="none" 
	d="
M1221.187256,2165.151367 
	C1235.255005,2142.510010 1251.802368,2123.254639 1274.614258,2110.176514 
	C1288.332275,2102.311768 1303.220215,2097.700928 1318.862915,2095.829102 
	C1349.451294,2092.168457 1379.905273,2094.378906 1409.951416,2100.259277 
	C1420.828125,2102.388184 1431.123169,2107.780029 1441.496948,2112.127930 
	C1465.237671,2122.077881 1485.907104,2136.117432 1500.885742,2157.607666 
	C1513.452026,2175.637207 1521.204102,2195.713623 1525.528931,2217.044678 
	C1533.529541,2256.506104 1529.641602,2295.062500 1514.230347,2332.190674 
	C1499.319336,2368.113281 1475.517090,2396.389893 1440.040283,2413.672607 
	C1422.892212,2422.026123 1404.731445,2426.688721 1385.599976,2428.472412 
	C1351.169800,2431.682617 1317.987549,2426.842529 1286.194946,2413.822266 
	C1237.722046,2393.970215 1209.524414,2357.332031 1199.697144,2306.178467 
	C1193.133179,2272.011475 1196.200684,2238.042236 1202.673584,2204.328125 
	C1205.386963,2190.196289 1212.543335,2177.584473 1221.187256,2165.151367 
z"/>
<path fill="#FFFFFF" opacity="1.000000" stroke="none" 
	d="
M1864.181396,193.676773 
	C1899.824219,214.139282 1932.602051,237.413956 1963.101807,263.820068 
	C1998.730103,294.665985 2029.735840,329.605530 2055.807861,368.972198 
	C2088.734131,418.688751 2110.519287,472.792053 2121.957031,531.258301 
	C2129.214600,568.356262 2131.387451,605.858398 2129.394287,643.381348 
	C2125.938477,708.440918 2120.909180,773.416565 2116.592529,838.430908 
	C2113.612549,883.309204 2110.787354,928.197815 2107.773438,973.073730 
	C2104.134521,1027.253418 2100.368164,1081.424438 2096.660645,1135.599487 
	C2096.210938,1142.171631 2095.786865,1148.745605 2095.291992,1156.210938 
	C1970.999390,1148.329102 1847.482178,1140.496460 1723.197998,1132.615234 
	C1723.592651,1123.608032 1723.794434,1115.702393 1724.307129,1107.817017 
	C1728.631836,1041.327637 1733.056763,974.844727 1737.360229,908.354004 
	C1739.727295,871.782715 1741.875000,835.197266 1744.203979,798.623474 
	C1745.855103,772.690247 1748.115967,746.787109 1749.289429,720.833618 
	C1754.241455,611.315796 1705.058594,517.571594 1603.006470,470.491791 
	C1499.494385,422.738495 1395.702271,426.167206 1296.137207,482.551422 
	C1227.217896,521.580750 1186.790894,582.465576 1173.877441,660.841492 
	C1170.961792,678.537231 1169.800537,696.564575 1168.591431,714.490540 
	C1165.407471,761.692017 1162.724487,808.927063 1159.687378,856.138733 
	C1156.072754,912.325012 1152.278687,968.499573 1148.603760,1024.682007 
	C1147.625366,1039.642700 1146.807861,1054.613770 1145.893677,1069.578735 
	C1145.694214,1072.843994 1145.397217,1076.103271 1145.031372,1080.834961 
	C1020.010803,1072.442749 895.539368,1064.087280 770.557495,1055.697632 
	C770.557495,1048.737305 770.207764,1042.204224 770.614868,1035.718628 
	C773.035889,997.148926 775.619812,958.589539 778.172546,920.028198 
	C781.209351,874.154480 784.305664,828.284546 787.308594,782.408630 
	C789.593567,747.501099 791.745117,712.584900 794.006775,677.675903 
	C796.742126,635.452759 798.373840,593.119629 802.502319,551.032227 
	C818.096313,392.061859 893.424622,269.452850 1028.716309,184.182220 
	C1091.330322,144.718262 1159.644287,118.994415 1231.495239,102.323273 
	C1314.536011,83.055832 1398.735107,77.622398 1483.671509,82.460304 
	C1555.828979,86.570335 1626.173462,100.469521 1695.232788,121.705666 
	C1740.740723,135.699631 1785.231812,152.040512 1827.653076,173.731796 
	C1839.785034,179.935135 1851.615479,186.727737 1864.181396,193.676773 
z"/>
<path fill="#FFFEFE" opacity="1.000000" stroke="none" 
	d="
M1138.445312,1182.427490 
	C1133.553345,1259.772583 1128.718994,1336.177124 1123.822388,1413.568115 
	C998.295044,1405.265625 873.548401,1397.014893 747.798340,1388.697754 
	C754.304443,1288.582520 760.751770,1189.372070 767.277832,1088.949829 
	C892.783569,1097.385498 1017.230835,1105.750122 1142.938232,1114.199463 
	C1141.423218,1137.185669 1139.963135,1159.336426 1138.445312,1182.427490 
z"/>
<path fill="#FFFEFE" opacity="1.000000" stroke="none" 
	d="
M2081.571777,1365.223877 
	C2079.636963,1393.394287 2077.782715,1420.634155 2075.885010,1447.870850 
	C2075.240234,1457.127930 2074.487061,1466.377686 2073.677490,1477.021240 
	C1949.849487,1468.759521 1826.548828,1459.842407 1702.354370,1451.334595 
	C1708.471436,1356.085083 1714.542114,1261.558472 1720.683350,1165.931641 
	C1844.812378,1173.796997 1968.262573,1181.619263 2093.025391,1189.524780 
	C2089.193359,1248.324585 2085.414307,1306.308228 2081.571777,1365.223877 
z"/>
<path fill="#FFFDFD" opacity="1.000000" stroke="none" 
	d="
M2147.908203,492.132568 
	C2123.111084,399.405396 2074.131104,322.214325 2005.815552,256.716614 
	C2003.296631,254.301697 2000.881104,251.778976 1999.504883,247.712494 
	C2000.919922,248.121277 2002.517090,248.235291 2003.723633,248.981277 
	C2066.490234,287.785339 2121.565430,334.815369 2162.368408,397.163483 
	C2193.966553,445.446198 2213.891357,498.423920 2225.919678,554.571899 
	C2235.782471,600.611328 2240.307617,647.272095 2242.414795,694.266907 
	C2245.583984,764.956299 2242.680176,835.505737 2238.511719,906.036865 
	C2235.780029,952.257935 2232.748535,998.462097 2229.668457,1044.661621 
	C2227.808594,1072.557373 2225.598633,1100.429688 2223.460693,1129.471191 
	C2192.616455,1136.546997 2161.689697,1143.641724 2129.922852,1150.929199 
	C2129.922852,1146.827271 2129.753174,1143.888916 2129.948242,1140.974976 
	C2133.041992,1094.778076 2136.213135,1048.586426 2139.302002,1002.389160 
	C2141.613281,967.822205 2143.781982,933.245728 2146.105713,898.679626 
	C2149.122314,853.812378 2152.323486,808.957520 2155.270020,764.085754 
	C2158.216797,719.212769 2161.743896,674.357605 2163.552490,629.435669 
	C2165.410889,583.272278 2159.783691,537.694946 2147.908203,492.132568 
z"/>
<path fill="#FFFDFD" opacity="1.000000" stroke="none" 
	d="
M1199.698975,753.702271 
	C1201.758667,725.530029 1202.310669,698.091797 1206.116089,671.112366 
	C1216.781616,595.493103 1257.369507,540.400940 1324.447388,504.501526 
	C1326.961548,503.155914 1329.760376,502.342010 1333.343384,500.915161 
	C1328.788452,515.516296 1323.606079,528.820068 1320.546387,542.595398 
	C1313.200684,575.667542 1305.414551,608.747009 1300.430908,642.214355 
	C1292.637573,694.549988 1286.415894,747.143433 1280.674683,799.752686 
	C1276.701782,836.157166 1274.331909,872.750000 1271.837280,909.299011 
	C1268.729980,954.826477 1266.239624,1000.395935 1263.453247,1045.945557 
	C1263.231567,1049.567383 1262.777466,1053.175049 1262.378906,1057.336792 
	C1234.849731,1063.652100 1207.713989,1069.877197 1178.986938,1076.467285 
	C1185.727295,968.433228 1192.543457,861.529968 1199.698975,753.702271 
z"/>
<path fill="#FFFDFD" opacity="1.000000" stroke="none" 
	d="
M2147.297119,1181.240723 
	C2171.945801,1175.573853 2195.795898,1170.153809 2220.433350,1164.554810 
	C2215.973877,1250.988892 2211.588867,1335.979248 2207.177246,1421.486572 
	C2174.869141,1439.028320 2142.209717,1456.760742 2107.549072,1475.579834 
	C2113.780029,1377.975708 2120.534424,1282.329346 2126.807861,1185.988892 
	C2133.614258,1184.432983 2140.056396,1182.960205 2147.297119,1181.240723 
z"/>
<path fill="#FFFDFD" opacity="1.000000" stroke="none" 
	d="
M1162.809814,1324.924561 
	C1164.657593,1296.732422 1166.384277,1269.467651 1168.148560,1242.205444 
	C1170.945312,1198.990601 1173.767212,1155.777466 1176.659546,1111.316284 
	C1204.120850,1105.001587 1231.804443,1098.635864 1259.485474,1092.270752 
	C1259.485474,1104.646240 1259.878662,1116.248047 1259.413452,1127.815186 
	C1257.873413,1166.103149 1256.008179,1204.377808 1254.297974,1242.659058 
	C1252.766235,1276.947021 1251.222656,1311.234741 1249.831543,1345.528442 
	C1249.657837,1349.809937 1248.945923,1353.013062 1244.675415,1355.300415 
	C1217.376587,1369.921387 1190.208008,1384.785400 1162.971924,1399.524414 
	C1161.878540,1400.116089 1160.539185,1400.253418 1158.118408,1400.943359 
	C1159.680786,1375.367798 1161.193115,1350.610474 1162.809814,1324.924561 
z"/>
<path fill="#FFFDFD" opacity="1.000000" stroke="none" 
	d="
M1996.609375,245.412994 
	C1997.246704,246.013367 1997.883911,246.613770 1998.521240,247.214172 
	C1997.750000,247.337036 1996.978882,247.459869 1996.189941,246.708099 
	C1996.172241,245.833481 1996.609375,245.412994 1996.609375,245.412994 
z"/>
<path fill="#FFFDFD" opacity="1.000000" stroke="none" 
	d="
M1995.954834,246.044952 
	C1995.218750,245.708527 1994.699951,245.160629 1994.181152,244.612732 
	C1994.755127,244.548004 1995.329224,244.483261 1996.256348,244.915771 
	C1996.609375,245.412994 1996.172241,245.833481 1995.954834,246.044952 
z"/>
<path fill="#FFFEFE" opacity="1.000000" stroke="none" 
	d="
M677.239563,2015.272461 
	C652.209839,2030.668213 625.425842,2037.068237 597.012024,2037.667480 
	C568.121155,2038.276733 540.000916,2033.934326 513.204407,2023.151855 
	C462.736084,2002.843750 433.247681,1965.089111 424.231720,1911.797485 
	C418.636383,1878.724854 421.183289,1845.619019 427.747742,1812.815430 
	C430.407257,1799.525391 436.904907,1787.937622 443.987305,1776.637451 
	C457.888336,1754.458130 474.096863,1734.427368 496.689117,1720.372437 
	C511.337982,1711.259277 527.409058,1706.491577 544.393982,1704.159424 
	C575.371826,1699.906128 605.968201,1703.585938 636.438599,1708.642944 
	C643.181702,1709.761963 649.712341,1712.860596 656.023865,1715.742065 
	C671.422791,1722.771851 687.288269,1729.048096 700.816650,1739.546387 
	C723.722534,1757.321777 737.792969,1781.140259 746.069580,1808.429077 
	C760.792419,1856.972290 756.228455,1904.394043 735.025269,1950.031860 
	C722.476990,1977.041016 703.809448,1999.343750 677.239563,2015.272461 
z"/>
<path fill="#FFFEFE" opacity="1.000000" stroke="none" 
	d="
M2428.316406,2074.258057 
	C2424.610840,2112.424316 2412.398193,2146.345947 2388.328857,2175.420410 
	C2361.985107,2207.241699 2327.833008,2224.231689 2286.888916,2228.365479 
	C2252.181152,2231.869141 2218.671631,2226.988037 2186.501953,2213.944580 
	C2138.304932,2194.402832 2110.095215,2158.120117 2099.910645,2107.539551 
	C2094.413086,2080.235840 2096.064209,2052.872803 2099.172363,2025.348511 
	C2104.241211,1980.461304 2128.560547,1947.241333 2161.569580,1919.127563 
	C2177.975586,1905.154663 2197.825195,1898.457275 2218.934082,1895.849609 
	C2249.492188,1892.074707 2279.953369,1894.369873 2309.988037,1900.265991 
	C2320.860840,1902.400269 2331.153564,1907.784668 2341.521240,1912.137573 
	C2365.244385,1922.097046 2385.962646,1936.087280 2400.872803,1957.617310 
	C2413.759521,1976.225464 2421.885742,1996.861694 2425.700195,2019.017578 
	C2427.885010,2031.706421 2428.666504,2044.665039 2429.529785,2057.539062 
	C2429.879639,2062.758545 2428.766357,2068.076172 2428.316406,2074.258057 
z"/>
</svg>